<mxfile host="app.diagrams.net" modified="2023-07-19T05:39:19.163Z" agent="Mozilla/5.0 (Macintosh; Intel Mac OS X 10_15_7) AppleWebKit/605.1.15 (KHTML, like Gecko) Version/16.5.2 Safari/605.1.15" etag="Oe-RS34VjziLSxPWInvW" version="21.6.3">
  <diagram name="Page-1" id="p4ZSSzsuwcASarjY5yV_">
    <mxGraphModel dx="1742" dy="912" grid="1" gridSize="10" guides="1" tooltips="1" connect="1" arrows="1" fold="1" page="1" pageScale="1" pageWidth="1100" pageHeight="850" math="0" shadow="0">
      <root>
        <mxCell id="0" />
        <mxCell id="1" parent="0" />
        <mxCell id="CxDLXUl8qLKFLsoEXX_Z-104" value="" style="rounded=1;whiteSpace=wrap;html=1;" vertex="1" parent="1">
          <mxGeometry x="40" y="10" width="1340" height="750" as="geometry" />
        </mxCell>
        <mxCell id="CxDLXUl8qLKFLsoEXX_Z-10" value="" style="group" vertex="1" connectable="0" parent="1">
          <mxGeometry x="650" y="40" width="420" height="130" as="geometry" />
        </mxCell>
        <mxCell id="CxDLXUl8qLKFLsoEXX_Z-1" value="" style="shape=cylinder3;whiteSpace=wrap;html=1;boundedLbl=1;backgroundOutline=1;size=15;" vertex="1" parent="CxDLXUl8qLKFLsoEXX_Z-10">
          <mxGeometry width="420" height="130" as="geometry" />
        </mxCell>
        <mxCell id="CxDLXUl8qLKFLsoEXX_Z-4" value="Cache" style="shape=dataStorage;whiteSpace=wrap;html=1;fixedSize=1;" vertex="1" parent="CxDLXUl8qLKFLsoEXX_Z-10">
          <mxGeometry x="20" y="40" width="110" height="80" as="geometry" />
        </mxCell>
        <mxCell id="CxDLXUl8qLKFLsoEXX_Z-5" value="Downloads" style="shape=dataStorage;whiteSpace=wrap;html=1;fixedSize=1;" vertex="1" parent="CxDLXUl8qLKFLsoEXX_Z-10">
          <mxGeometry x="150" y="40" width="110" height="80" as="geometry" />
        </mxCell>
        <mxCell id="CxDLXUl8qLKFLsoEXX_Z-6" value="Channels" style="shape=dataStorage;whiteSpace=wrap;html=1;fixedSize=1;" vertex="1" parent="CxDLXUl8qLKFLsoEXX_Z-10">
          <mxGeometry x="280" y="40" width="110" height="80" as="geometry" />
        </mxCell>
        <mxCell id="CxDLXUl8qLKFLsoEXX_Z-7" value="" style="endArrow=classic;html=1;rounded=0;exitX=0;exitY=0.5;exitDx=0;exitDy=0;" edge="1" parent="CxDLXUl8qLKFLsoEXX_Z-10" source="CxDLXUl8qLKFLsoEXX_Z-6">
          <mxGeometry width="50" height="50" relative="1" as="geometry">
            <mxPoint x="300" y="260" as="sourcePoint" />
            <mxPoint x="240" y="80" as="targetPoint" />
          </mxGeometry>
        </mxCell>
        <mxCell id="CxDLXUl8qLKFLsoEXX_Z-8" value="" style="endArrow=classic;html=1;rounded=0;exitX=0;exitY=0.5;exitDx=0;exitDy=0;" edge="1" parent="CxDLXUl8qLKFLsoEXX_Z-10" source="CxDLXUl8qLKFLsoEXX_Z-5">
          <mxGeometry width="50" height="50" relative="1" as="geometry">
            <mxPoint x="300" y="260" as="sourcePoint" />
            <mxPoint x="110" y="80" as="targetPoint" />
          </mxGeometry>
        </mxCell>
        <mxCell id="CxDLXUl8qLKFLsoEXX_Z-9" value="Catalog" style="text;html=1;strokeColor=none;fillColor=none;align=center;verticalAlign=middle;whiteSpace=wrap;rounded=0;" vertex="1" parent="CxDLXUl8qLKFLsoEXX_Z-10">
          <mxGeometry x="180" width="60" height="30" as="geometry" />
        </mxCell>
        <mxCell id="CxDLXUl8qLKFLsoEXX_Z-26" value="Servers" style="shape=cylinder3;whiteSpace=wrap;html=1;boundedLbl=1;backgroundOutline=1;size=15;" vertex="1" parent="1">
          <mxGeometry x="1190" y="65" width="120" height="80" as="geometry" />
        </mxCell>
        <mxCell id="CxDLXUl8qLKFLsoEXX_Z-34" value="" style="group;strokeColor=none;" vertex="1" connectable="0" parent="1">
          <mxGeometry x="390" y="290" width="200" height="340" as="geometry" />
        </mxCell>
        <mxCell id="CxDLXUl8qLKFLsoEXX_Z-27" value="Install missing dependencies" style="rounded=1;whiteSpace=wrap;html=1;strokeColor=#0000FF;" vertex="1" parent="CxDLXUl8qLKFLsoEXX_Z-34">
          <mxGeometry width="200" height="37.5" as="geometry" />
        </mxCell>
        <mxCell id="CxDLXUl8qLKFLsoEXX_Z-28" value="Construct IP-level graph" style="rounded=1;whiteSpace=wrap;html=1;strokeColor=#0000FF;" vertex="1" parent="CxDLXUl8qLKFLsoEXX_Z-34">
          <mxGeometry y="50" width="200" height="37.5" as="geometry" />
        </mxCell>
        <mxCell id="CxDLXUl8qLKFLsoEXX_Z-29" value="Construct HDL-level graph" style="rounded=1;whiteSpace=wrap;html=1;strokeColor=#0000FF;" vertex="1" parent="CxDLXUl8qLKFLsoEXX_Z-34">
          <mxGeometry y="200" width="200" height="40" as="geometry" />
        </mxCell>
        <mxCell id="CxDLXUl8qLKFLsoEXX_Z-30" value="Dynamically resolve namespace collisions" style="rounded=1;whiteSpace=wrap;html=1;strokeColor=#0000FF;" vertex="1" parent="CxDLXUl8qLKFLsoEXX_Z-34">
          <mxGeometry y="150" width="200" height="40" as="geometry" />
        </mxCell>
        <mxCell id="CxDLXUl8qLKFLsoEXX_Z-31" value="Parse HDL files across IP" style="rounded=1;whiteSpace=wrap;html=1;strokeColor=#0000FF;" vertex="1" parent="CxDLXUl8qLKFLsoEXX_Z-34">
          <mxGeometry y="100" width="200" height="40" as="geometry" />
        </mxCell>
        <mxCell id="CxDLXUl8qLKFLsoEXX_Z-32" value="Topologically sort HDL files" style="rounded=1;whiteSpace=wrap;html=1;strokeColor=#0000FF;" vertex="1" parent="CxDLXUl8qLKFLsoEXX_Z-34">
          <mxGeometry y="250" width="200" height="40" as="geometry" />
        </mxCell>
        <mxCell id="CxDLXUl8qLKFLsoEXX_Z-33" value="Collect supporting files from user-defined patterns" style="rounded=1;whiteSpace=wrap;html=1;strokeColor=#0000FF;" vertex="1" parent="CxDLXUl8qLKFLsoEXX_Z-34">
          <mxGeometry y="300" width="200" height="40" as="geometry" />
        </mxCell>
        <mxCell id="CxDLXUl8qLKFLsoEXX_Z-45" value="" style="group;strokeColor=none;" vertex="1" connectable="0" parent="1">
          <mxGeometry x="80" y="190" width="285" height="420" as="geometry" />
        </mxCell>
        <mxCell id="CxDLXUl8qLKFLsoEXX_Z-36" value="&lt;font face=&quot;Courier New&quot;&gt;&lt;b&gt;$ orbit [options] [command]&lt;/b&gt;&lt;/font&gt;" style="ellipse;whiteSpace=wrap;html=1;strokeColor=#FF8000;" vertex="1" parent="CxDLXUl8qLKFLsoEXX_Z-45">
          <mxGeometry width="220" height="60" as="geometry" />
        </mxCell>
        <mxCell id="CxDLXUl8qLKFLsoEXX_Z-40" value="" style="group;strokeColor=none;" vertex="1" connectable="0" parent="CxDLXUl8qLKFLsoEXX_Z-45">
          <mxGeometry x="5" y="130" width="280" height="290" as="geometry" />
        </mxCell>
        <mxCell id="CxDLXUl8qLKFLsoEXX_Z-42" value="" style="rounded=1;whiteSpace=wrap;html=1;strokeColor=#FF8000;" vertex="1" parent="CxDLXUl8qLKFLsoEXX_Z-40">
          <mxGeometry x="-10" y="-30" width="230" height="190" as="geometry" />
        </mxCell>
        <mxCell id="CxDLXUl8qLKFLsoEXX_Z-37" value="Validate command-line arguments" style="rounded=1;whiteSpace=wrap;html=1;strokeColor=#FF8000;" vertex="1" parent="CxDLXUl8qLKFLsoEXX_Z-40">
          <mxGeometry width="210" height="40" as="geometry" />
        </mxCell>
        <mxCell id="CxDLXUl8qLKFLsoEXX_Z-38" value="Structure data for backend" style="rounded=1;whiteSpace=wrap;html=1;strokeColor=#FF8000;" vertex="1" parent="CxDLXUl8qLKFLsoEXX_Z-40">
          <mxGeometry y="50" width="210" height="40" as="geometry" />
        </mxCell>
        <mxCell id="CxDLXUl8qLKFLsoEXX_Z-39" value="Execute requested command" style="rounded=1;whiteSpace=wrap;html=1;strokeColor=#FF8000;" vertex="1" parent="CxDLXUl8qLKFLsoEXX_Z-40">
          <mxGeometry y="100" width="210" height="40" as="geometry" />
        </mxCell>
        <mxCell id="CxDLXUl8qLKFLsoEXX_Z-43" value="Orbit" style="text;html=1;strokeColor=none;fillColor=none;align=center;verticalAlign=middle;whiteSpace=wrap;rounded=0;" vertex="1" parent="CxDLXUl8qLKFLsoEXX_Z-40">
          <mxGeometry y="-30" width="60" height="30" as="geometry" />
        </mxCell>
        <mxCell id="CxDLXUl8qLKFLsoEXX_Z-44" value="" style="endArrow=classic;html=1;rounded=0;exitX=0.5;exitY=1;exitDx=0;exitDy=0;strokeColor=#FF8000;" edge="1" parent="CxDLXUl8qLKFLsoEXX_Z-45" source="CxDLXUl8qLKFLsoEXX_Z-36" target="CxDLXUl8qLKFLsoEXX_Z-42">
          <mxGeometry width="50" height="50" relative="1" as="geometry">
            <mxPoint x="445" y="300" as="sourcePoint" />
            <mxPoint x="495" y="250" as="targetPoint" />
          </mxGeometry>
        </mxCell>
        <mxCell id="CxDLXUl8qLKFLsoEXX_Z-46" value="" style="endArrow=none;dashed=1;html=1;dashPattern=1 3;strokeWidth=2;rounded=0;entryX=0;entryY=0.5;entryDx=0;entryDy=0;entryPerimeter=0;exitX=1;exitY=0.5;exitDx=0;exitDy=0;exitPerimeter=0;" edge="1" parent="1" source="CxDLXUl8qLKFLsoEXX_Z-1" target="CxDLXUl8qLKFLsoEXX_Z-26">
          <mxGeometry width="50" height="50" relative="1" as="geometry">
            <mxPoint x="970" y="360" as="sourcePoint" />
            <mxPoint x="1020" y="310" as="targetPoint" />
          </mxGeometry>
        </mxCell>
        <mxCell id="CxDLXUl8qLKFLsoEXX_Z-48" value="&lt;font face=&quot;Courier New&quot;&gt;&lt;b&gt;$ orbit plan [options]&lt;/b&gt;&lt;/font&gt;" style="ellipse;whiteSpace=wrap;html=1;strokeColor=#0000FF;" vertex="1" parent="1">
          <mxGeometry x="380" y="190" width="220" height="60" as="geometry" />
        </mxCell>
        <mxCell id="CxDLXUl8qLKFLsoEXX_Z-49" value="" style="endArrow=classic;html=1;rounded=0;exitX=0.5;exitY=1;exitDx=0;exitDy=0;entryX=0.5;entryY=0;entryDx=0;entryDy=0;strokeColor=#0000FF;" edge="1" parent="1" source="CxDLXUl8qLKFLsoEXX_Z-48" target="CxDLXUl8qLKFLsoEXX_Z-27">
          <mxGeometry width="50" height="50" relative="1" as="geometry">
            <mxPoint x="730" y="390" as="sourcePoint" />
            <mxPoint x="780" y="340" as="targetPoint" />
          </mxGeometry>
        </mxCell>
        <mxCell id="CxDLXUl8qLKFLsoEXX_Z-54" value="Write IP graph to lock file" style="rounded=1;whiteSpace=wrap;html=1;strokeColor=#0000FF;" vertex="1" parent="1">
          <mxGeometry x="670" y="640" width="200" height="40" as="geometry" />
        </mxCell>
        <mxCell id="CxDLXUl8qLKFLsoEXX_Z-55" value="Write file list to blueprint" style="rounded=1;whiteSpace=wrap;html=1;strokeColor=#0000FF;" vertex="1" parent="1">
          <mxGeometry x="670" y="690" width="200" height="40" as="geometry" />
        </mxCell>
        <mxCell id="CxDLXUl8qLKFLsoEXX_Z-56" value="" style="endArrow=classic;html=1;rounded=0;exitX=1.002;exitY=0.538;exitDx=0;exitDy=0;entryX=0;entryY=0.5;entryDx=0;entryDy=0;exitPerimeter=0;strokeColor=#0000FF;" edge="1" parent="1" source="CxDLXUl8qLKFLsoEXX_Z-28" target="CxDLXUl8qLKFLsoEXX_Z-54">
          <mxGeometry width="50" height="50" relative="1" as="geometry">
            <mxPoint x="790" y="550" as="sourcePoint" />
            <mxPoint x="620" y="670" as="targetPoint" />
            <Array as="points">
              <mxPoint x="620" y="360" />
              <mxPoint x="620" y="660" />
            </Array>
          </mxGeometry>
        </mxCell>
        <mxCell id="CxDLXUl8qLKFLsoEXX_Z-57" value="" style="endArrow=classic;html=1;rounded=0;exitX=0.5;exitY=1;exitDx=0;exitDy=0;entryX=0;entryY=0.5;entryDx=0;entryDy=0;strokeColor=#0000FF;" edge="1" parent="1" source="CxDLXUl8qLKFLsoEXX_Z-33" target="CxDLXUl8qLKFLsoEXX_Z-55">
          <mxGeometry width="50" height="50" relative="1" as="geometry">
            <mxPoint x="680" y="540" as="sourcePoint" />
            <mxPoint x="730" y="490" as="targetPoint" />
            <Array as="points">
              <mxPoint x="490" y="710" />
            </Array>
          </mxGeometry>
        </mxCell>
        <mxCell id="CxDLXUl8qLKFLsoEXX_Z-60" value="&lt;font face=&quot;Courier New&quot;&gt;&lt;b&gt;$ orbit build [options]&lt;/b&gt;&lt;/font&gt;" style="ellipse;whiteSpace=wrap;html=1;strokeColor=#00CC00;" vertex="1" parent="1">
          <mxGeometry x="1040" y="190" width="220" height="60" as="geometry" />
        </mxCell>
        <mxCell id="CxDLXUl8qLKFLsoEXX_Z-74" value="" style="group;strokeColor=none;" vertex="1" connectable="0" parent="1">
          <mxGeometry x="1230" y="290" width="120" height="80" as="geometry" />
        </mxCell>
        <mxCell id="CxDLXUl8qLKFLsoEXX_Z-66" value="" style="group" vertex="1" connectable="0" parent="CxDLXUl8qLKFLsoEXX_Z-74">
          <mxGeometry x="20" width="100" height="60" as="geometry" />
        </mxCell>
        <mxCell id="CxDLXUl8qLKFLsoEXX_Z-63" value="" style="verticalLabelPosition=bottom;verticalAlign=top;html=1;shape=card;whiteSpace=wrap;size=20;arcSize=12;strokeColor=#00CC00;" vertex="1" parent="CxDLXUl8qLKFLsoEXX_Z-66">
          <mxGeometry width="100" height="60" as="geometry" />
        </mxCell>
        <mxCell id="CxDLXUl8qLKFLsoEXX_Z-64" value="Plugins" style="text;html=1;strokeColor=none;fillColor=none;align=center;verticalAlign=middle;whiteSpace=wrap;rounded=0;" vertex="1" parent="CxDLXUl8qLKFLsoEXX_Z-66">
          <mxGeometry x="20" y="5" width="60" height="30" as="geometry" />
        </mxCell>
        <mxCell id="CxDLXUl8qLKFLsoEXX_Z-67" value="" style="group;strokeColor=none;" vertex="1" connectable="0" parent="CxDLXUl8qLKFLsoEXX_Z-74">
          <mxGeometry x="10" y="10" width="100" height="60" as="geometry" />
        </mxCell>
        <mxCell id="CxDLXUl8qLKFLsoEXX_Z-68" value="" style="verticalLabelPosition=bottom;verticalAlign=top;html=1;shape=card;whiteSpace=wrap;size=20;arcSize=12;strokeColor=#00CC00;" vertex="1" parent="CxDLXUl8qLKFLsoEXX_Z-67">
          <mxGeometry width="100" height="60" as="geometry" />
        </mxCell>
        <mxCell id="CxDLXUl8qLKFLsoEXX_Z-69" value="Plugins" style="text;html=1;strokeColor=none;fillColor=none;align=center;verticalAlign=middle;whiteSpace=wrap;rounded=0;" vertex="1" parent="CxDLXUl8qLKFLsoEXX_Z-67">
          <mxGeometry x="20" y="15" width="60" height="30" as="geometry" />
        </mxCell>
        <mxCell id="CxDLXUl8qLKFLsoEXX_Z-70" value="" style="group" vertex="1" connectable="0" parent="CxDLXUl8qLKFLsoEXX_Z-74">
          <mxGeometry y="20" width="100" height="60" as="geometry" />
        </mxCell>
        <mxCell id="CxDLXUl8qLKFLsoEXX_Z-71" value="" style="verticalLabelPosition=bottom;verticalAlign=top;html=1;shape=card;whiteSpace=wrap;size=20;arcSize=12;strokeColor=#00CC00;" vertex="1" parent="CxDLXUl8qLKFLsoEXX_Z-70">
          <mxGeometry width="100" height="60" as="geometry" />
        </mxCell>
        <mxCell id="CxDLXUl8qLKFLsoEXX_Z-72" value="Plugins" style="text;html=1;strokeColor=none;fillColor=none;align=center;verticalAlign=middle;whiteSpace=wrap;rounded=0;" vertex="1" parent="CxDLXUl8qLKFLsoEXX_Z-70">
          <mxGeometry x="20" y="15" width="60" height="30" as="geometry" />
        </mxCell>
        <mxCell id="CxDLXUl8qLKFLsoEXX_Z-75" value="" style="endArrow=none;dashed=1;html=1;dashPattern=1 3;strokeWidth=2;rounded=0;entryX=0.912;entryY=0.914;entryDx=0;entryDy=0;entryPerimeter=0;exitX=0.5;exitY=0;exitDx=0;exitDy=0;exitPerimeter=0;" edge="1" parent="1" source="CxDLXUl8qLKFLsoEXX_Z-63" target="CxDLXUl8qLKFLsoEXX_Z-26">
          <mxGeometry width="50" height="50" relative="1" as="geometry">
            <mxPoint x="930" y="430" as="sourcePoint" />
            <mxPoint x="980" y="380" as="targetPoint" />
          </mxGeometry>
        </mxCell>
        <mxCell id="CxDLXUl8qLKFLsoEXX_Z-79" value="Initialize environment" style="rounded=1;whiteSpace=wrap;html=1;strokeColor=#00CC00;" vertex="1" parent="1">
          <mxGeometry x="1070" y="390" width="200" height="40" as="geometry" />
        </mxCell>
        <mxCell id="CxDLXUl8qLKFLsoEXX_Z-80" value="Execute plugin command" style="rounded=1;whiteSpace=wrap;html=1;strokeColor=#00CC00;" vertex="1" parent="1">
          <mxGeometry x="1070" y="440" width="200" height="40" as="geometry" />
        </mxCell>
        <mxCell id="CxDLXUl8qLKFLsoEXX_Z-82" value="User-defined scripted workflow" style="ellipse;shape=cloud;whiteSpace=wrap;html=1;strokeColor=#00CC00;" vertex="1" parent="1">
          <mxGeometry x="1095" y="500" width="150" height="100" as="geometry" />
        </mxCell>
        <mxCell id="CxDLXUl8qLKFLsoEXX_Z-83" value="" style="endArrow=classic;html=1;rounded=0;exitX=0.5;exitY=1;exitDx=0;exitDy=0;strokeColor=#00CC00;" edge="1" parent="1" source="CxDLXUl8qLKFLsoEXX_Z-80">
          <mxGeometry width="50" height="50" relative="1" as="geometry">
            <mxPoint x="1020" y="570" as="sourcePoint" />
            <mxPoint x="1170" y="510" as="targetPoint" />
          </mxGeometry>
        </mxCell>
        <mxCell id="CxDLXUl8qLKFLsoEXX_Z-84" value="Simulation results&lt;br&gt;Synthesis report&lt;br&gt;Bitstream&lt;br&gt;..." style="shape=cylinder3;whiteSpace=wrap;html=1;boundedLbl=1;backgroundOutline=1;size=15;strokeColor=#00CC00;" vertex="1" parent="1">
          <mxGeometry x="1080" y="630" width="190" height="90" as="geometry" />
        </mxCell>
        <mxCell id="CxDLXUl8qLKFLsoEXX_Z-85" value="" style="endArrow=classic;html=1;rounded=0;exitX=0.511;exitY=0.958;exitDx=0;exitDy=0;exitPerimeter=0;entryX=0.482;entryY=0.013;entryDx=0;entryDy=0;entryPerimeter=0;strokeColor=#00CC00;" edge="1" parent="1" source="CxDLXUl8qLKFLsoEXX_Z-82" target="CxDLXUl8qLKFLsoEXX_Z-84">
          <mxGeometry width="50" height="50" relative="1" as="geometry">
            <mxPoint x="1100" y="490" as="sourcePoint" />
            <mxPoint x="1150" y="440" as="targetPoint" />
          </mxGeometry>
        </mxCell>
        <mxCell id="CxDLXUl8qLKFLsoEXX_Z-86" value="" style="endArrow=classic;html=1;rounded=0;exitX=0.5;exitY=1;exitDx=0;exitDy=0;strokeColor=#00CC00;" edge="1" parent="1" source="CxDLXUl8qLKFLsoEXX_Z-60">
          <mxGeometry width="50" height="50" relative="1" as="geometry">
            <mxPoint x="1110" y="390" as="sourcePoint" />
            <mxPoint x="1150" y="390" as="targetPoint" />
          </mxGeometry>
        </mxCell>
        <mxCell id="CxDLXUl8qLKFLsoEXX_Z-87" value="" style="endArrow=classic;html=1;rounded=0;exitX=0;exitY=0;exitDx=0;exitDy=20;exitPerimeter=0;entryX=0.5;entryY=0;entryDx=0;entryDy=0;strokeColor=#00CC00;" edge="1" parent="1" source="CxDLXUl8qLKFLsoEXX_Z-71" target="CxDLXUl8qLKFLsoEXX_Z-79">
          <mxGeometry width="50" height="50" relative="1" as="geometry">
            <mxPoint x="1110" y="390" as="sourcePoint" />
            <mxPoint x="1160" y="340" as="targetPoint" />
            <Array as="points">
              <mxPoint x="1170" y="330" />
            </Array>
          </mxGeometry>
        </mxCell>
        <mxCell id="CxDLXUl8qLKFLsoEXX_Z-89" value="&lt;b&gt;&lt;font style=&quot;font-size: 18px;&quot;&gt;Building Phase&lt;/font&gt;&lt;/b&gt;" style="text;html=1;align=center;verticalAlign=middle;resizable=0;points=[];autosize=1;strokeColor=none;fillColor=none;" vertex="1" parent="1">
          <mxGeometry x="1075" y="160" width="150" height="30" as="geometry" />
        </mxCell>
        <mxCell id="CxDLXUl8qLKFLsoEXX_Z-90" value="&lt;font style=&quot;font-size: 18px;&quot;&gt;&lt;b&gt;Planning Phase&lt;/b&gt;&lt;/font&gt;" style="text;html=1;align=center;verticalAlign=middle;resizable=0;points=[];autosize=1;strokeColor=none;fillColor=none;" vertex="1" parent="1">
          <mxGeometry x="410" y="160" width="160" height="30" as="geometry" />
        </mxCell>
        <mxCell id="CxDLXUl8qLKFLsoEXX_Z-91" value="&lt;font style=&quot;font-size: 18px;&quot;&gt;&lt;b&gt;Architecture&lt;/b&gt;&lt;/font&gt;" style="text;html=1;align=center;verticalAlign=middle;resizable=0;points=[];autosize=1;strokeColor=none;fillColor=none;" vertex="1" parent="1">
          <mxGeometry x="122.5" y="160" width="130" height="30" as="geometry" />
        </mxCell>
        <mxCell id="CxDLXUl8qLKFLsoEXX_Z-99" value="" style="group" vertex="1" connectable="0" parent="1">
          <mxGeometry x="710" y="270" width="325.0049999999999" height="320" as="geometry" />
        </mxCell>
        <mxCell id="CxDLXUl8qLKFLsoEXX_Z-12" value="" style="rounded=0;whiteSpace=wrap;html=1;container=0;" vertex="1" parent="CxDLXUl8qLKFLsoEXX_Z-99">
          <mxGeometry width="325" height="320" as="geometry" />
        </mxCell>
        <mxCell id="CxDLXUl8qLKFLsoEXX_Z-13" value="Current Working IP" style="text;html=1;strokeColor=none;fillColor=none;align=center;verticalAlign=middle;whiteSpace=wrap;rounded=0;container=0;" vertex="1" parent="CxDLXUl8qLKFLsoEXX_Z-99">
          <mxGeometry x="120" width="110" height="30" as="geometry" />
        </mxCell>
        <mxCell id="CxDLXUl8qLKFLsoEXX_Z-97" value="" style="rounded=0;whiteSpace=wrap;html=1;" vertex="1" parent="CxDLXUl8qLKFLsoEXX_Z-99">
          <mxGeometry y="30" width="160" height="290" as="geometry" />
        </mxCell>
        <mxCell id="CxDLXUl8qLKFLsoEXX_Z-14" value="Manifest" style="shape=document;whiteSpace=wrap;html=1;boundedLbl=1;strokeColor=#0000FF;container=0;" vertex="1" parent="CxDLXUl8qLKFLsoEXX_Z-99">
          <mxGeometry x="20" y="75" width="120" height="45" as="geometry" />
        </mxCell>
        <mxCell id="CxDLXUl8qLKFLsoEXX_Z-16" value="Lock File" style="shape=document;whiteSpace=wrap;html=1;boundedLbl=1;strokeColor=#0000FF;container=0;" vertex="1" parent="CxDLXUl8qLKFLsoEXX_Z-99">
          <mxGeometry x="185" y="75" width="120" height="45" as="geometry" />
        </mxCell>
        <mxCell id="CxDLXUl8qLKFLsoEXX_Z-25" value="Blueprint" style="shape=document;whiteSpace=wrap;html=1;boundedLbl=1;strokeColor=#00CC00;container=0;" vertex="1" parent="CxDLXUl8qLKFLsoEXX_Z-99">
          <mxGeometry x="185" y="160" width="120" height="45" as="geometry" />
        </mxCell>
        <mxCell id="CxDLXUl8qLKFLsoEXX_Z-18" value="Supporting Files" style="shape=document;whiteSpace=wrap;html=1;boundedLbl=1;strokeColor=#0000FF;container=0;" vertex="1" parent="CxDLXUl8qLKFLsoEXX_Z-99">
          <mxGeometry x="30" y="240" width="120" height="45" as="geometry" />
        </mxCell>
        <mxCell id="CxDLXUl8qLKFLsoEXX_Z-19" value="Supporting Files" style="shape=document;whiteSpace=wrap;html=1;boundedLbl=1;strokeColor=#0000FF;container=0;" vertex="1" parent="CxDLXUl8qLKFLsoEXX_Z-99">
          <mxGeometry x="20" y="250" width="120" height="45" as="geometry" />
        </mxCell>
        <mxCell id="CxDLXUl8qLKFLsoEXX_Z-20" value="Supporting Files" style="shape=document;whiteSpace=wrap;html=1;boundedLbl=1;strokeColor=#0000FF;container=0;" vertex="1" parent="CxDLXUl8qLKFLsoEXX_Z-99">
          <mxGeometry x="15" y="260" width="120" height="45" as="geometry" />
        </mxCell>
        <mxCell id="CxDLXUl8qLKFLsoEXX_Z-17" value="HDL Files" style="shape=document;whiteSpace=wrap;html=1;boundedLbl=1;strokeColor=#0000FF;container=0;" vertex="1" parent="CxDLXUl8qLKFLsoEXX_Z-99">
          <mxGeometry x="30" y="140" width="120" height="45" as="geometry" />
        </mxCell>
        <mxCell id="CxDLXUl8qLKFLsoEXX_Z-22" value="HDL Files" style="shape=document;whiteSpace=wrap;html=1;boundedLbl=1;strokeColor=#0000FF;container=0;" vertex="1" parent="CxDLXUl8qLKFLsoEXX_Z-99">
          <mxGeometry x="22.5" y="150" width="120" height="45" as="geometry" />
        </mxCell>
        <mxCell id="CxDLXUl8qLKFLsoEXX_Z-23" value="HDL Files" style="shape=document;whiteSpace=wrap;html=1;boundedLbl=1;strokeColor=#0000FF;container=0;" vertex="1" parent="CxDLXUl8qLKFLsoEXX_Z-99">
          <mxGeometry x="15" y="160" width="120" height="45" as="geometry" />
        </mxCell>
        <mxCell id="CxDLXUl8qLKFLsoEXX_Z-94" value="" style="endArrow=none;html=1;rounded=0;exitX=0.001;exitY=0.084;exitDx=0;exitDy=0;exitPerimeter=0;entryX=1.001;entryY=0.084;entryDx=0;entryDy=0;entryPerimeter=0;" edge="1" parent="CxDLXUl8qLKFLsoEXX_Z-99">
          <mxGeometry width="50" height="50" relative="1" as="geometry">
            <mxPoint x="0.004999999999881766" y="30" as="sourcePoint" />
            <mxPoint x="325.0049999999999" y="30" as="targetPoint" />
          </mxGeometry>
        </mxCell>
        <mxCell id="CxDLXUl8qLKFLsoEXX_Z-100" value="(Maintained by Orbit)" style="text;html=1;strokeColor=none;fillColor=none;align=center;verticalAlign=middle;whiteSpace=wrap;rounded=0;" vertex="1" parent="CxDLXUl8qLKFLsoEXX_Z-99">
          <mxGeometry x="185" y="30" width="115" height="30" as="geometry" />
        </mxCell>
        <mxCell id="CxDLXUl8qLKFLsoEXX_Z-101" value="(Maintained by user)" style="text;html=1;strokeColor=none;fillColor=none;align=center;verticalAlign=middle;whiteSpace=wrap;rounded=0;" vertex="1" parent="CxDLXUl8qLKFLsoEXX_Z-99">
          <mxGeometry x="40" y="30" width="120" height="30" as="geometry" />
        </mxCell>
        <mxCell id="CxDLXUl8qLKFLsoEXX_Z-58" value="" style="endArrow=classic;html=1;rounded=0;entryX=0;entryY=0.5;entryDx=0;entryDy=0;strokeColor=#0000FF;" edge="1" parent="1" target="CxDLXUl8qLKFLsoEXX_Z-16">
          <mxGeometry width="50" height="50" relative="1" as="geometry">
            <mxPoint x="870" y="660" as="sourcePoint" />
            <mxPoint x="920" y="610" as="targetPoint" />
            <Array as="points">
              <mxPoint x="880" y="660" />
              <mxPoint x="880" y="367" />
            </Array>
          </mxGeometry>
        </mxCell>
        <mxCell id="CxDLXUl8qLKFLsoEXX_Z-59" value="" style="endArrow=classic;html=1;rounded=0;entryX=0.297;entryY=0.975;entryDx=0;entryDy=0;entryPerimeter=0;strokeColor=#0000FF;" edge="1" parent="1" target="CxDLXUl8qLKFLsoEXX_Z-25">
          <mxGeometry width="50" height="50" relative="1" as="geometry">
            <mxPoint x="870" y="710" as="sourcePoint" />
            <mxPoint x="955" y="470" as="targetPoint" />
            <Array as="points">
              <mxPoint x="931" y="710" />
            </Array>
          </mxGeometry>
        </mxCell>
        <mxCell id="CxDLXUl8qLKFLsoEXX_Z-50" value="" style="endArrow=classic;html=1;rounded=0;exitX=0.003;exitY=0.348;exitDx=0;exitDy=0;exitPerimeter=0;strokeColor=#0000FF;" edge="1" parent="1" source="CxDLXUl8qLKFLsoEXX_Z-14">
          <mxGeometry width="50" height="50" relative="1" as="geometry">
            <mxPoint x="670" y="370" as="sourcePoint" />
            <mxPoint x="590" y="310" as="targetPoint" />
            <Array as="points">
              <mxPoint x="650" y="360" />
              <mxPoint x="650" y="310" />
            </Array>
          </mxGeometry>
        </mxCell>
        <mxCell id="CxDLXUl8qLKFLsoEXX_Z-51" value="" style="endArrow=classic;html=1;rounded=0;exitX=0;exitY=0.5;exitDx=0;exitDy=0;entryX=1;entryY=0.5;entryDx=0;entryDy=0;strokeColor=#0000FF;" edge="1" parent="1" source="CxDLXUl8qLKFLsoEXX_Z-23" target="CxDLXUl8qLKFLsoEXX_Z-31">
          <mxGeometry width="50" height="50" relative="1" as="geometry">
            <mxPoint x="750" y="460" as="sourcePoint" />
            <mxPoint x="800" y="410" as="targetPoint" />
            <Array as="points">
              <mxPoint x="660" y="453" />
              <mxPoint x="660" y="410" />
            </Array>
          </mxGeometry>
        </mxCell>
        <mxCell id="CxDLXUl8qLKFLsoEXX_Z-52" value="" style="endArrow=classic;html=1;rounded=0;exitX=0;exitY=0.5;exitDx=0;exitDy=0;entryX=1;entryY=0.5;entryDx=0;entryDy=0;strokeColor=#0000FF;" edge="1" parent="1" source="CxDLXUl8qLKFLsoEXX_Z-20" target="CxDLXUl8qLKFLsoEXX_Z-33">
          <mxGeometry width="50" height="50" relative="1" as="geometry">
            <mxPoint x="700" y="510" as="sourcePoint" />
            <mxPoint x="750" y="460" as="targetPoint" />
            <Array as="points">
              <mxPoint x="690" y="553" />
              <mxPoint x="660" y="553" />
              <mxPoint x="660" y="610" />
            </Array>
          </mxGeometry>
        </mxCell>
        <mxCell id="CxDLXUl8qLKFLsoEXX_Z-47" value="" style="endArrow=none;dashed=1;html=1;dashPattern=1 3;strokeWidth=2;rounded=0;exitX=0;exitY=0.5;exitDx=0;exitDy=0;entryX=0.159;entryY=0.041;entryDx=0;entryDy=0;entryPerimeter=0;" edge="1" parent="1" source="CxDLXUl8qLKFLsoEXX_Z-4" target="CxDLXUl8qLKFLsoEXX_Z-14">
          <mxGeometry width="50" height="50" relative="1" as="geometry">
            <mxPoint x="740" y="250" as="sourcePoint" />
            <mxPoint x="750" y="340" as="targetPoint" />
            <Array as="points">
              <mxPoint x="620" y="120" />
              <mxPoint x="620" y="240" />
              <mxPoint x="750" y="240" />
            </Array>
          </mxGeometry>
        </mxCell>
        <mxCell id="CxDLXUl8qLKFLsoEXX_Z-88" value="" style="endArrow=classic;html=1;rounded=0;exitX=1;exitY=0.5;exitDx=0;exitDy=0;entryX=0.07;entryY=0.4;entryDx=0;entryDy=0;entryPerimeter=0;strokeColor=#00CC00;" edge="1" parent="1" source="CxDLXUl8qLKFLsoEXX_Z-25" target="CxDLXUl8qLKFLsoEXX_Z-82">
          <mxGeometry width="50" height="50" relative="1" as="geometry">
            <mxPoint x="1010" y="400" as="sourcePoint" />
            <mxPoint x="1060" y="350" as="targetPoint" />
            <Array as="points">
              <mxPoint x="1050" y="452" />
              <mxPoint x="1050" y="540" />
            </Array>
          </mxGeometry>
        </mxCell>
      </root>
    </mxGraphModel>
  </diagram>
</mxfile>
